<svg xmlns="http://www.w3.org/2000/svg" viewBox="0 0 1200 900" width="1200" height="900" preserveAspectRatio="xMidYMid slice">
<rect width="1200" height="900" fill="#1c1b1a"></rect>
<rect x="7.0" y="0" width="34" height="900" fill="#c09a6e"></rect>
<path d="M29.7 0.0 Q28.8 54.0 30.1 107.9 Q29.7 178.3 29.7 248.7 Q28.2 290.5 29.5 332.3 Q28.4 391.6 30.1 450.8 Q28.9 492.4 29.0 534.1 Q30.4 613.9 30.3 693.8 Q28.3 754.6 29.4 815.4 Q28.5 857.7 30.4 900.0" fill="none" stroke="#8a6f4f" stroke-opacity="0.27" stroke-width="0.75"></path>
<path d="M33.5 0.0 Q33.5 76.4 33.6 152.8 Q33.5 199.9 33.3 247.1 Q34.1 278.9 33.3 310.8 Q33.1 379.8 33.9 448.8 Q33.9 523.5 33.7 598.2 Q33.9 657.3 33.2 716.3 Q34.0 770.1 33.3 823.9 Q34.1 862.0 33.5 900.0" fill="none" stroke="#8a6f4f" stroke-opacity="0.27" stroke-width="1.05"></path>
<rect x="38.0" y="0" width="3" height="900" fill="#000" fill-opacity="0.12"></rect>
<rect x="55.0" y="0" width="34" height="900" fill="#c59e71"></rect>
<path d="M86.8 0.0 Q85.9 31.3 87.1 62.7 Q86.8 142.3 86.8 222.0 Q87.4 279.5 86.5 337.0 Q87.0 397.5 87.0 457.9 Q86.1 496.9 86.7 536.0 Q86.5 612.3 87.0 688.7 Q85.9 734.0 86.3 779.3 Q87.5 839.7 86.7 900.0" fill="none" stroke="#8e7252" stroke-opacity="0.34" stroke-width="1.28"></path>
<path d="M84.0 0.0 Q85.9 50.4 84.9 100.7 Q85.4 160.2 83.9 219.8 Q83.0 268.5 84.7 317.3 Q82.3 355.4 84.6 393.5 Q83.9 462.2 84.6 530.9 Q83.0 563.5 83.6 596.1 Q82.7 647.1 83.1 698.1 Q85.5 745.0 84.9 791.9 Q83.9 846.0 83.5 900.0" fill="none" stroke="#8e7252" stroke-opacity="0.41" stroke-width="1.13"></path>
<rect x="86.0" y="0" width="3" height="900" fill="#000" fill-opacity="0.12"></rect>
<rect x="103.0" y="0" width="34" height="900" fill="#caa377"></rect>
<path d="M105.8 0.0 Q106.4 71.9 106.2 143.8 Q105.7 203.9 105.9 264.0 Q105.5 336.4 105.9 408.9 Q106.3 452.7 105.4 496.5 Q106.7 560.8 105.4 625.0 Q106.1 684.7 106.2 744.4 Q105.4 803.6 105.8 862.8 Q106.6 881.4 105.5 900.0" fill="none" stroke="#917556" stroke-opacity="0.20" stroke-width="0.69"></path>
<path d="M105.8 0.0 Q106.7 37.0 105.9 74.1 Q105.9 110.4 105.5 146.7 Q105.1 201.4 105.4 256.1 Q105.5 295.3 106.0 334.5 Q104.6 392.0 106.0 449.5 Q106.4 523.2 106.1 596.9 Q105.7 627.3 105.2 657.7 Q105.0 725.9 106.0 794.1 Q106.2 836.7 105.5 879.4 Q105.5 889.7 105.5 900.0" fill="none" stroke="#917556" stroke-opacity="0.40" stroke-width="0.90"></path>
<rect x="134.0" y="0" width="3" height="900" fill="#000" fill-opacity="0.12"></rect>
<rect x="151.0" y="0" width="34" height="900" fill="#c8a073"></rect>
<path d="M169.5 0.0 Q169.9 34.9 169.5 69.9 Q171.3 136.6 169.1 203.3 Q169.6 268.3 169.6 333.3 Q170.7 366.4 170.4 399.6 Q168.8 447.4 170.4 495.2 Q167.8 530.5 168.7 565.9 Q170.5 636.6 169.4 707.3 Q167.6 768.4 169.8 829.5 Q169.5 864.7 169.3 900.0" fill="none" stroke="#907353" stroke-opacity="0.28" stroke-width="0.83"></path>
<path d="M154.5 0.0 Q155.0 42.4 154.8 84.7 Q154.4 150.9 154.1 217.1 Q154.4 266.4 154.6 315.6 Q153.5 393.8 154.4 471.9 Q155.0 526.5 154.9 581.1 Q154.8 650.1 154.8 719.1 Q155.3 782.5 154.7 845.9 Q153.8 872.9 155.0 900.0" fill="none" stroke="#907353" stroke-opacity="0.27" stroke-width="1.21"></path>
<rect x="182.0" y="0" width="3" height="900" fill="#000" fill-opacity="0.12"></rect>
<rect x="199.0" y="0" width="34" height="900" fill="#caa478"></rect>
<path d="M229.9 0.0 Q229.2 30.3 229.5 60.6 Q228.5 110.2 230.0 159.8 Q229.1 193.7 230.8 227.7 Q229.8 294.8 229.1 361.9 Q230.7 439.7 229.3 517.5 Q230.5 564.3 230.3 611.1 Q231.7 654.1 229.6 697.2 Q231.3 739.9 229.2 782.6 Q228.7 841.3 230.1 900.0" fill="none" stroke="#927657" stroke-opacity="0.25" stroke-width="0.98"></path>
<path d="M229.2 0.0 Q229.5 51.8 228.9 103.7 Q228.9 142.4 228.9 181.1 Q230.4 220.5 228.6 260.0 Q230.3 330.5 229.5 401.0 Q229.2 432.0 228.6 462.9 Q229.7 523.3 228.9 583.7 Q229.3 614.1 228.7 644.5 Q229.1 689.9 229.7 735.4 Q228.3 783.9 229.6 832.4 Q229.3 866.2 228.7 900.0" fill="none" stroke="#927657" stroke-opacity="0.23" stroke-width="1.00"></path>
<rect x="230.0" y="0" width="3" height="900" fill="#000" fill-opacity="0.12"></rect>
<rect x="247.0" y="0" width="34" height="900" fill="#c8a174"></rect>
<path d="M255.8 0.0 Q257.2 72.2 256.4 144.3 Q256.0 175.2 255.0 206.1 Q256.6 281.1 256.2 356.1 Q254.2 395.5 256.3 434.9 Q256.2 495.2 255.7 555.6 Q255.2 625.6 255.4 695.6 Q255.1 743.2 256.0 790.9 Q254.3 845.4 255.0 900.0" fill="none" stroke="#907453" stroke-opacity="0.30" stroke-width="1.28"></path>
<path d="M254.7 0.0 Q253.8 32.9 254.7 65.9 Q255.0 129.9 254.4 194.0 Q255.5 229.2 254.7 264.4 Q255.1 314.8 254.9 365.2 Q253.9 421.4 255.0 477.7 Q253.8 518.3 254.5 559.0 Q254.9 615.7 254.4 672.3 Q254.7 737.8 254.4 803.3 Q255.3 851.6 255.1 900.0" fill="none" stroke="#907453" stroke-opacity="0.34" stroke-width="0.82"></path>
<rect x="278.0" y="0" width="3" height="900" fill="#000" fill-opacity="0.12"></rect>
<rect x="295.0" y="0" width="34" height="900" fill="#caa378"></rect>
<path d="M324.1 0.0 Q325.3 75.4 323.9 150.8 Q325.3 227.9 324.5 305.0 Q323.7 335.6 324.2 366.2 Q324.8 426.5 324.3 486.9 Q325.2 524.9 324.1 563.0 Q323.3 637.1 324.8 711.2 Q324.8 768.9 324.4 826.7 Q323.7 863.3 323.5 900.0" fill="none" stroke="#917556" stroke-opacity="0.28" stroke-width="0.78"></path>
<path d="M313.2 0.0 Q311.9 48.1 312.4 96.2 Q313.5 147.4 312.4 198.5 Q312.2 261.8 312.5 325.1 Q313.3 401.4 313.9 477.8 Q311.9 533.5 312.7 589.2 Q313.7 640.4 313.7 691.7 Q313.7 759.2 312.8 826.8 Q312.8 863.4 313.2 900.0" fill="none" stroke="#917556" stroke-opacity="0.24" stroke-width="1.14"></path>
<rect x="326.0" y="0" width="3" height="900" fill="#000" fill-opacity="0.12"></rect>
<rect x="343.0" y="0" width="34" height="900" fill="#c79f72"></rect>
<path d="M346.1 0.0 Q347.1 59.3 346.5 118.6 Q347.8 185.2 345.9 251.7 Q344.3 301.4 346.4 351.1 Q346.3 410.2 346.9 469.2 Q345.1 509.1 346.5 548.9 Q346.0 619.5 345.3 690.2 Q347.2 738.7 346.1 787.2 Q345.7 840.3 346.3 893.4 Q346.7 896.7 346.7 900.0" fill="none" stroke="#8f7352" stroke-opacity="0.36" stroke-width="0.97"></path>
<path d="M352.5 0.0 Q354.0 69.6 352.0 139.3 Q353.8 211.7 351.8 284.1 Q353.0 329.5 351.9 374.9 Q351.7 446.4 352.8 518.0 Q351.6 562.8 352.0 607.6 Q353.2 662.4 352.0 717.3 Q352.0 781.6 352.8 846.0 Q351.5 873.0 351.9 900.0" fill="none" stroke="#8f7352" stroke-opacity="0.19" stroke-width="1.30"></path>
<rect x="374.0" y="0" width="3" height="900" fill="#000" fill-opacity="0.12"></rect>
<rect x="391.0" y="0" width="34" height="900" fill="#c69e72"></rect>
<path d="M396.7 0.0 Q394.9 62.7 397.1 125.5 Q396.5 185.2 396.7 244.9 Q396.2 323.1 396.9 401.2 Q396.2 463.0 396.4 524.7 Q397.2 592.5 396.6 660.2 Q395.7 715.9 397.2 771.6 Q397.2 802.6 396.6 833.6 Q397.0 866.8 396.8 900.0" fill="none" stroke="#8f7252" stroke-opacity="0.20" stroke-width="1.09"></path>
<path d="M398.0 0.0 Q397.4 46.3 397.5 92.7 Q396.9 125.1 397.4 157.5 Q399.1 218.7 397.5 279.9 Q398.1 315.5 397.3 351.1 Q398.8 401.4 397.4 451.6 Q398.1 516.6 397.2 581.6 Q398.3 623.7 397.3 665.8 Q398.2 706.0 398.5 746.2 Q398.5 802.2 397.1 858.3 Q397.3 879.1 398.7 900.0" fill="none" stroke="#8f7252" stroke-opacity="0.27" stroke-width="1.38"></path>
<rect x="422.0" y="0" width="3" height="900" fill="#000" fill-opacity="0.12"></rect>
<rect x="439.0" y="0" width="34" height="900" fill="#bd976d"></rect>
<path d="M456.0 0.0 Q456.2 68.6 455.4 137.1 Q454.4 213.4 456.8 289.8 Q456.8 358.6 456.0 427.4 Q455.4 465.6 456.3 503.8 Q455.5 566.6 456.5 629.4 Q455.2 662.0 455.2 694.7 Q457.0 741.0 456.4 787.2 Q455.2 824.7 455.2 862.1 Q455.7 881.1 455.5 900.0" fill="none" stroke="#886d4e" stroke-opacity="0.27" stroke-width="1.47"></path>
<path d="M453.8 0.0 Q453.7 61.4 453.8 122.8 Q452.8 171.0 453.7 219.2 Q453.2 264.4 453.3 309.6 Q453.5 385.3 453.3 460.9 Q452.9 492.5 454.3 524.1 Q454.3 571.0 453.3 617.8 Q453.6 680.3 454.1 742.9 Q453.4 799.3 453.4 855.7 Q454.8 877.9 454.1 900.0" fill="none" stroke="#886d4e" stroke-opacity="0.30" stroke-width="0.93"></path>
<rect x="470.0" y="0" width="3" height="900" fill="#000" fill-opacity="0.12"></rect>
<rect x="487.0" y="0" width="34" height="900" fill="#cba47a"></rect>
<path d="M514.4 0.0 Q514.8 64.0 514.5 127.9 Q515.0 206.1 514.2 284.4 Q514.1 364.2 514.3 444.0 Q513.9 522.9 514.3 601.7 Q514.0 663.0 514.2 724.3 Q514.6 794.0 514.6 863.7 Q515.0 881.8 514.7 900.0" fill="none" stroke="#927658" stroke-opacity="0.38" stroke-width="1.58"></path>
<path d="M504.0 0.0 Q505.5 55.7 504.2 111.4 Q504.5 162.9 503.7 214.4 Q503.6 250.9 503.4 287.4 Q502.7 317.6 503.9 347.8 Q502.6 416.0 504.2 484.1 Q504.0 519.7 503.7 555.3 Q504.6 607.6 503.8 659.9 Q504.7 709.4 503.4 759.0 Q504.6 806.5 504.5 853.9 Q503.2 877.0 504.2 900.0" fill="none" stroke="#927658" stroke-opacity="0.26" stroke-width="1.30"></path>
<rect x="518.0" y="0" width="3" height="900" fill="#000" fill-opacity="0.12"></rect>
<rect x="535.0" y="0" width="34" height="900" fill="#caa479"></rect>
<path d="M541.1 0.0 Q540.7 76.8 541.2 153.6 Q540.6 224.5 541.4 295.5 Q540.7 325.7 540.7 355.8 Q540.4 403.1 540.5 450.4 Q540.3 520.6 541.1 590.7 Q541.8 648.4 541.4 706.2 Q540.3 767.2 541.3 828.3 Q542.0 863.2 540.8 898.1 Q540.4 899.0 540.9 900.0" fill="none" stroke="#927657" stroke-opacity="0.37" stroke-width="1.45"></path>
<path d="M559.4 0.0 Q558.8 42.2 559.1 84.4 Q560.6 136.1 560.2 187.7 Q560.9 221.9 560.1 256.1 Q560.0 309.2 559.8 362.2 Q559.8 401.6 560.2 440.9 Q560.7 514.9 558.7 588.9 Q559.3 654.7 560.0 720.4 Q559.5 758.7 558.8 797.1 Q560.1 848.5 558.6 900.0" fill="none" stroke="#927657" stroke-opacity="0.25" stroke-width="0.74"></path>
<rect x="566.0" y="0" width="3" height="900" fill="#000" fill-opacity="0.12"></rect>
<rect x="583.0" y="0" width="34" height="900" fill="#c9a275"></rect>
<path d="M603.9 0.0 Q604.5 77.5 603.9 155.1 Q603.7 213.8 604.0 272.5 Q603.8 322.4 604.1 372.3 Q603.6 411.7 604.1 451.0 Q603.3 492.2 604.2 533.5 Q603.8 571.5 603.8 609.4 Q603.7 652.5 603.9 695.6 Q603.9 731.4 603.6 767.2 Q603.5 801.2 603.7 835.1 Q603.6 867.6 604.1 900.0" fill="none" stroke="#917454" stroke-opacity="0.34" stroke-width="1.07"></path>
<path d="M608.1 0.0 Q608.5 45.8 608.5 91.5 Q608.9 148.3 608.3 205.0 Q607.4 281.4 608.4 357.8 Q608.2 436.6 608.8 515.4 Q608.8 550.2 607.8 584.9 Q607.9 652.4 608.2 719.9 Q607.4 762.4 608.7 804.8 Q608.5 852.4 607.5 900.0" fill="none" stroke="#917454" stroke-opacity="0.25" stroke-width="1.57"></path>
<rect x="614.0" y="0" width="3" height="900" fill="#000" fill-opacity="0.12"></rect>
<rect x="631.0" y="0" width="34" height="900" fill="#c19a6f"></rect>
<path d="M649.1 0.0 Q649.3 55.5 649.9 111.0 Q648.3 180.1 649.0 249.2 Q649.7 300.2 649.4 351.2 Q649.7 394.2 649.0 437.3 Q648.5 468.0 648.9 498.8 Q649.7 538.6 649.9 578.5 Q649.5 655.1 649.7 731.6 Q649.4 786.2 649.8 840.8 Q648.7 870.4 648.9 900.0" fill="none" stroke="#8b6f50" stroke-opacity="0.26" stroke-width="1.03"></path>
<path d="M634.7 0.0 Q633.9 77.8 634.2 155.7 Q635.6 202.4 634.3 249.1 Q633.7 317.7 634.9 386.2 Q635.3 452.3 634.1 518.4 Q635.8 596.2 634.7 674.0 Q635.0 747.0 634.2 820.0 Q635.7 860.0 634.7 900.0" fill="none" stroke="#8b6f50" stroke-opacity="0.19" stroke-width="0.77"></path>
<rect x="662.0" y="0" width="3" height="900" fill="#000" fill-opacity="0.12"></rect>
<rect x="679.0" y="0" width="34" height="900" fill="#c09a6f"></rect>
<path d="M698.6 0.0 Q698.3 52.4 699.3 104.8 Q699.1 151.9 698.1 199.1 Q697.6 254.8 698.0 310.5 Q697.4 357.3 698.4 404.2 Q698.7 466.8 699.0 529.4 Q697.3 583.3 698.9 637.2 Q699.3 687.3 699.3 737.4 Q697.8 793.6 698.4 849.8 Q698.0 874.9 698.0 900.0" fill="none" stroke="#8b6f50" stroke-opacity="0.28" stroke-width="1.26"></path>
<path d="M705.5 0.0 Q706.5 74.2 705.3 148.4 Q704.0 210.6 706.0 272.8 Q704.7 338.2 705.4 403.6 Q706.5 447.2 705.4 490.8 Q706.9 559.9 705.9 628.9 Q705.0 677.9 706.2 726.9 Q704.4 802.1 705.3 877.4 Q706.3 888.7 705.1 900.0" fill="none" stroke="#8b6f50" stroke-opacity="0.29" stroke-width="1.56"></path>
<rect x="710.0" y="0" width="3" height="900" fill="#000" fill-opacity="0.12"></rect>
<rect x="727.0" y="0" width="34" height="900" fill="#be986d"></rect>
<path d="M737.2 0.0 Q738.6 75.4 737.2 150.7 Q738.7 220.3 737.0 289.8 Q736.5 331.2 737.7 372.5 Q737.4 409.5 737.9 446.5 Q737.6 486.5 737.3 526.6 Q737.3 604.9 737.2 683.2 Q738.0 758.4 736.7 833.6 Q736.9 866.8 737.9 900.0" fill="none" stroke="#896e4f" stroke-opacity="0.41" stroke-width="1.09"></path>
<path d="M741.5 0.0 Q740.9 43.8 741.2 87.6 Q740.7 154.1 741.6 220.6 Q741.9 280.5 741.5 340.4 Q741.1 416.8 741.1 493.2 Q741.1 552.3 741.9 611.4 Q741.8 687.5 741.8 763.6 Q741.5 805.8 741.4 848.0 Q741.3 874.0 741.5 900.0" fill="none" stroke="#896e4f" stroke-opacity="0.34" stroke-width="0.63"></path>
<rect x="758.0" y="0" width="3" height="900" fill="#000" fill-opacity="0.12"></rect>
<rect x="775.0" y="0" width="34" height="900" fill="#c8a074"></rect>
<path d="M780.8 0.0 Q781.2 57.6 780.5 115.2 Q781.7 180.5 781.6 245.7 Q779.9 304.8 781.1 363.8 Q781.8 396.3 780.5 428.8 Q779.4 494.8 781.0 560.8 Q779.0 599.2 780.4 637.7 Q780.4 710.1 780.9 782.5 Q782.7 841.3 780.4 900.0" fill="none" stroke="#907453" stroke-opacity="0.35" stroke-width="1.38"></path>
<path d="M800.8 0.0 Q801.4 53.7 800.5 107.4 Q801.1 161.7 801.2 216.0 Q801.2 258.2 800.5 300.4 Q800.8 338.2 801.0 376.1 Q801.8 438.1 800.5 500.1 Q800.8 556.6 800.6 613.1 Q800.0 689.0 800.6 764.9 Q801.1 796.9 801.0 828.9 Q801.7 864.5 801.0 900.0" fill="none" stroke="#907453" stroke-opacity="0.23" stroke-width="1.54"></path>
<rect x="806.0" y="0" width="3" height="900" fill="#000" fill-opacity="0.12"></rect>
<rect x="823.0" y="0" width="34" height="900" fill="#caa479"></rect>
<path d="M834.4 0.0 Q833.9 36.5 834.3 73.0 Q833.7 150.8 834.2 228.5 Q835.6 268.9 833.8 309.3 Q833.8 381.6 834.5 454.0 Q833.6 527.9 834.5 601.7 Q834.7 663.5 834.2 725.3 Q833.7 787.6 833.8 849.9 Q834.8 874.9 834.5 900.0" fill="none" stroke="#927657" stroke-opacity="0.37" stroke-width="0.76"></path>
<path d="M845.2 0.0 Q846.0 56.3 845.2 112.5 Q845.5 164.3 844.8 216.1 Q845.2 289.7 844.6 363.3 Q846.3 417.4 845.8 471.5 Q844.6 522.8 845.7 574.1 Q844.0 618.3 844.9 662.6 Q845.6 716.1 844.7 769.6 Q845.7 816.3 845.0 863.1 Q845.7 881.5 845.1 900.0" fill="none" stroke="#927657" stroke-opacity="0.35" stroke-width="1.08"></path>
<rect x="854.0" y="0" width="3" height="900" fill="#000" fill-opacity="0.12"></rect>
<rect x="871.0" y="0" width="34" height="900" fill="#caa478"></rect>
<path d="M888.4 0.0 Q889.2 70.7 888.3 141.3 Q887.9 201.8 887.5 262.3 Q889.6 336.5 888.9 410.7 Q888.6 483.7 889.3 556.7 Q890.3 610.3 887.5 664.0 Q888.6 712.9 889.0 761.8 Q889.5 817.9 888.1 873.9 Q889.5 886.9 888.6 900.0" fill="none" stroke="#917657" stroke-opacity="0.18" stroke-width="1.26"></path>
<path d="M873.0 0.0 Q873.5 35.7 872.7 71.5 Q872.1 137.4 872.7 203.4 Q873.9 268.1 872.6 332.9 Q872.8 393.6 873.1 454.3 Q872.0 488.2 872.6 522.1 Q873.0 596.6 873.1 671.2 Q873.4 707.8 873.4 744.5 Q873.6 784.4 873.4 824.3 Q873.1 862.1 873.2 900.0" fill="none" stroke="#917657" stroke-opacity="0.26" stroke-width="1.38"></path>
<rect x="902.0" y="0" width="3" height="900" fill="#000" fill-opacity="0.12"></rect>
<rect x="919.0" y="0" width="34" height="900" fill="#c39c70"></rect>
<path d="M939.7 0.0 Q940.6 79.5 939.1 158.9 Q939.3 197.8 939.6 236.6 Q939.0 302.5 939.8 368.3 Q939.1 420.9 939.9 473.5 Q941.1 525.2 939.2 576.9 Q940.1 651.9 939.6 726.8 Q940.1 760.7 940.2 794.6 Q940.3 842.1 939.8 889.6 Q940.8 894.8 939.4 900.0" fill="none" stroke="#8d7151" stroke-opacity="0.30" stroke-width="1.36"></path>
<path d="M947.3 0.0 Q948.5 48.4 946.7 96.8 Q947.0 154.3 947.9 211.9 Q947.9 278.0 947.8 344.1 Q947.1 391.5 946.6 438.9 Q946.2 486.4 947.7 534.0 Q948.8 570.5 947.5 606.9 Q945.9 659.2 947.2 711.5 Q946.0 769.7 948.1 827.9 Q947.0 864.0 946.9 900.0" fill="none" stroke="#8d7151" stroke-opacity="0.27" stroke-width="0.88"></path>
<rect x="950.0" y="0" width="3" height="900" fill="#000" fill-opacity="0.12"></rect>
<rect x="967.0" y="0" width="34" height="900" fill="#caa479"></rect>
<path d="M971.1 0.0 Q971.1 59.9 971.0 119.8 Q970.2 174.0 970.9 228.2 Q971.7 279.9 971.1 331.7 Q971.5 382.4 970.9 433.2 Q970.5 490.7 971.3 548.2 Q971.5 605.2 971.6 662.1 Q972.2 731.9 970.9 801.7 Q971.0 850.8 971.0 900.0" fill="none" stroke="#927657" stroke-opacity="0.29" stroke-width="1.52"></path>
<path d="M997.6 0.0 Q996.3 45.1 997.1 90.1 Q998.3 153.7 996.9 217.3 Q999.3 247.5 997.4 277.7 Q997.5 309.8 996.9 341.9 Q997.7 412.6 997.8 483.4 Q996.3 559.7 997.1 636.1 Q998.0 705.4 997.5 774.8 Q998.0 822.6 998.4 870.4 Q999.1 885.2 998.5 900.0" fill="none" stroke="#927657" stroke-opacity="0.21" stroke-width="0.63"></path>
<rect x="998.0" y="0" width="3" height="900" fill="#000" fill-opacity="0.12"></rect>
<rect x="1015.0" y="0" width="34" height="900" fill="#caa479"></rect>
<path d="M1024.4 0.0 Q1025.7 53.4 1024.3 106.8 Q1023.6 143.6 1025.0 180.3 Q1023.5 251.1 1025.0 321.9 Q1025.0 370.5 1024.5 419.1 Q1024.4 492.0 1023.8 564.9 Q1025.3 622.8 1024.3 680.6 Q1024.3 752.0 1024.2 823.3 Q1023.7 861.6 1024.4 900.0" fill="none" stroke="#927657" stroke-opacity="0.41" stroke-width="1.19"></path>
<path d="M1040.0 0.0 Q1040.2 48.5 1039.9 97.0 Q1040.7 127.4 1039.7 157.8 Q1040.8 220.8 1039.9 283.7 Q1039.7 327.2 1040.1 370.7 Q1039.4 449.7 1039.8 528.7 Q1039.7 603.5 1040.2 678.3 Q1039.2 744.4 1039.6 810.5 Q1040.7 855.2 1040.2 900.0" fill="none" stroke="#927657" stroke-opacity="0.29" stroke-width="0.70"></path>
<rect x="1046.0" y="0" width="3" height="900" fill="#000" fill-opacity="0.12"></rect>
<rect x="1063.0" y="0" width="34" height="900" fill="#c8a073"></rect>
<path d="M1068.3 0.0 Q1068.3 31.8 1068.3 63.5 Q1067.7 107.7 1067.8 152.0 Q1067.5 183.4 1068.8 214.8 Q1068.8 246.4 1068.2 278.1 Q1067.9 337.4 1068.8 396.8 Q1068.1 467.2 1068.2 537.6 Q1067.6 613.5 1068.7 689.4 Q1068.4 750.4 1068.3 811.3 Q1067.4 855.7 1068.0 900.0" fill="none" stroke="#907353" stroke-opacity="0.26" stroke-width="0.82"></path>
<path d="M1067.6 0.0 Q1068.3 51.1 1067.4 102.1 Q1066.8 179.2 1067.6 256.3 Q1068.5 307.4 1067.0 358.6 Q1067.4 415.9 1067.8 473.2 Q1067.7 514.8 1068.3 556.5 Q1069.1 591.6 1068.3 626.7 Q1066.2 679.1 1067.6 731.5 Q1066.0 809.7 1068.0 887.8 Q1066.3 893.9 1067.7 900.0" fill="none" stroke="#907353" stroke-opacity="0.22" stroke-width="0.70"></path>
<rect x="1094.0" y="0" width="3" height="900" fill="#000" fill-opacity="0.12"></rect>
<rect x="1111.0" y="0" width="34" height="900" fill="#c8a073"></rect>
<path d="M1121.9 0.0 Q1121.1 56.3 1122.6 112.7 Q1122.9 143.0 1121.6 173.3 Q1122.3 248.2 1121.9 323.2 Q1123.0 364.0 1122.5 404.8 Q1122.2 482.8 1122.6 560.9 Q1122.4 635.6 1121.7 710.4 Q1121.5 770.5 1122.4 830.7 Q1123.1 865.4 1122.5 900.0" fill="none" stroke="#907353" stroke-opacity="0.36" stroke-width="0.80"></path>
<path d="M1123.1 0.0 Q1122.6 46.8 1122.9 93.5 Q1122.5 163.2 1123.4 232.9 Q1123.4 309.0 1122.9 385.1 Q1123.0 429.6 1123.1 474.1 Q1122.4 550.4 1122.8 626.7 Q1122.4 697.8 1123.3 768.9 Q1123.7 808.3 1123.0 847.6 Q1123.5 873.8 1123.3 900.0" fill="none" stroke="#907353" stroke-opacity="0.28" stroke-width="1.06"></path>
<rect x="1142.0" y="0" width="3" height="900" fill="#000" fill-opacity="0.12"></rect>
<rect x="1159.0" y="0" width="34" height="900" fill="#caa378"></rect>
<path d="M1168.7 0.0 Q1169.5 73.5 1169.0 147.1 Q1168.4 194.3 1168.3 241.5 Q1167.8 313.1 1168.4 384.7 Q1168.6 415.9 1169.2 447.2 Q1168.2 480.7 1168.5 514.2 Q1168.4 579.3 1168.4 644.3 Q1169.5 708.9 1168.3 773.5 Q1168.5 806.7 1169.1 839.8 Q1167.9 869.9 1168.8 900.0" fill="none" stroke="#917656" stroke-opacity="0.36" stroke-width="1.05"></path>
<path d="M1162.4 0.0 Q1161.2 35.0 1161.7 70.0 Q1161.3 146.8 1162.3 223.7 Q1161.5 294.7 1162.2 365.8 Q1162.5 435.5 1161.9 505.1 Q1163.7 562.0 1162.8 618.8 Q1161.0 696.9 1161.7 775.1 Q1161.0 830.2 1163.0 885.3 Q1162.5 892.7 1162.9 900.0" fill="none" stroke="#917656" stroke-opacity="0.28" stroke-width="1.37"></path>
<rect x="1190.0" y="0" width="3" height="900" fill="#000" fill-opacity="0.12"></rect>
</svg>
