<svg xmlns="http://www.w3.org/2000/svg" viewBox="0 0 1600 1000" width="1600" height="1000" preserveAspectRatio="xMidYMid slice">
<rect width="1600" height="1000" fill="#3a3836"></rect>
<rect x="0.0" y="0" width="1600.0" height="640" fill="#1c1b1a"></rect>
<rect x="6.0" y="0" width="22" height="640" fill="#33312f"></rect>
<rect x="25.0" y="0" width="3" height="640" fill="#000" fill-opacity="0.14"></rect>
<rect x="37.0" y="0" width="22" height="640" fill="#403e3c"></rect>
<rect x="56.0" y="0" width="3" height="640" fill="#000" fill-opacity="0.14"></rect>
<rect x="68.0" y="0" width="22" height="640" fill="#3f3d3b"></rect>
<rect x="87.0" y="0" width="3" height="640" fill="#000" fill-opacity="0.14"></rect>
<rect x="99.0" y="0" width="22" height="640" fill="#3e3c3a"></rect>
<rect x="118.0" y="0" width="3" height="640" fill="#000" fill-opacity="0.14"></rect>
<rect x="130.0" y="0" width="22" height="640" fill="#3b3937"></rect>
<rect x="149.0" y="0" width="3" height="640" fill="#000" fill-opacity="0.14"></rect>
<rect x="161.0" y="0" width="22" height="640" fill="#3d3b39"></rect>
<rect x="180.0" y="0" width="3" height="640" fill="#000" fill-opacity="0.14"></rect>
<rect x="192.0" y="0" width="22" height="640" fill="#312f2d"></rect>
<rect x="211.0" y="0" width="3" height="640" fill="#000" fill-opacity="0.14"></rect>
<rect x="223.0" y="0" width="22" height="640" fill="#373533"></rect>
<rect x="242.0" y="0" width="3" height="640" fill="#000" fill-opacity="0.14"></rect>
<rect x="254.0" y="0" width="22" height="640" fill="#32302f"></rect>
<rect x="273.0" y="0" width="3" height="640" fill="#000" fill-opacity="0.14"></rect>
<rect x="285.0" y="0" width="22" height="640" fill="#3a3836"></rect>
<rect x="304.0" y="0" width="3" height="640" fill="#000" fill-opacity="0.14"></rect>
<rect x="316.0" y="0" width="22" height="640" fill="#343230"></rect>
<rect x="335.0" y="0" width="3" height="640" fill="#000" fill-opacity="0.14"></rect>
<rect x="347.0" y="0" width="22" height="640" fill="#353331"></rect>
<rect x="366.0" y="0" width="3" height="640" fill="#000" fill-opacity="0.14"></rect>
<rect x="378.0" y="0" width="22" height="640" fill="#353331"></rect>
<rect x="397.0" y="0" width="3" height="640" fill="#000" fill-opacity="0.14"></rect>
<rect x="409.0" y="0" width="22" height="640" fill="#363432"></rect>
<rect x="428.0" y="0" width="3" height="640" fill="#000" fill-opacity="0.14"></rect>
<rect x="440.0" y="0" width="22" height="640" fill="#3c3a38"></rect>
<rect x="459.0" y="0" width="3" height="640" fill="#000" fill-opacity="0.14"></rect>
<rect x="471.0" y="0" width="22" height="640" fill="#403e3c"></rect>
<rect x="490.0" y="0" width="3" height="640" fill="#000" fill-opacity="0.14"></rect>
<rect x="502.0" y="0" width="22" height="640" fill="#33312f"></rect>
<rect x="521.0" y="0" width="3" height="640" fill="#000" fill-opacity="0.14"></rect>
<rect x="533.0" y="0" width="22" height="640" fill="#3b3a38"></rect>
<rect x="552.0" y="0" width="3" height="640" fill="#000" fill-opacity="0.14"></rect>
<rect x="564.0" y="0" width="22" height="640" fill="#3d3c3a"></rect>
<rect x="583.0" y="0" width="3" height="640" fill="#000" fill-opacity="0.14"></rect>
<rect x="595.0" y="0" width="22" height="640" fill="#33312f"></rect>
<rect x="614.0" y="0" width="3" height="640" fill="#000" fill-opacity="0.14"></rect>
<rect x="626.0" y="0" width="22" height="640" fill="#32302e"></rect>
<rect x="645.0" y="0" width="3" height="640" fill="#000" fill-opacity="0.14"></rect>
<rect x="657.0" y="0" width="22" height="640" fill="#343230"></rect>
<rect x="676.0" y="0" width="3" height="640" fill="#000" fill-opacity="0.14"></rect>
<rect x="688.0" y="0" width="22" height="640" fill="#3a3937"></rect>
<rect x="707.0" y="0" width="3" height="640" fill="#000" fill-opacity="0.14"></rect>
<rect x="719.0" y="0" width="22" height="640" fill="#353331"></rect>
<rect x="738.0" y="0" width="3" height="640" fill="#000" fill-opacity="0.14"></rect>
<rect x="750.0" y="0" width="22" height="640" fill="#32302e"></rect>
<rect x="769.0" y="0" width="3" height="640" fill="#000" fill-opacity="0.14"></rect>
<rect x="781.0" y="0" width="22" height="640" fill="#393735"></rect>
<rect x="800.0" y="0" width="3" height="640" fill="#000" fill-opacity="0.14"></rect>
<rect x="812.0" y="0" width="22" height="640" fill="#33312f"></rect>
<rect x="831.0" y="0" width="3" height="640" fill="#000" fill-opacity="0.14"></rect>
<rect x="843.0" y="0" width="22" height="640" fill="#3d3c3a"></rect>
<rect x="862.0" y="0" width="3" height="640" fill="#000" fill-opacity="0.14"></rect>
<rect x="874.0" y="0" width="22" height="640" fill="#32302e"></rect>
<rect x="893.0" y="0" width="3" height="640" fill="#000" fill-opacity="0.14"></rect>
<rect x="905.0" y="0" width="22" height="640" fill="#363432"></rect>
<rect x="924.0" y="0" width="3" height="640" fill="#000" fill-opacity="0.14"></rect>
<rect x="936.0" y="0" width="22" height="640" fill="#33312f"></rect>
<rect x="955.0" y="0" width="3" height="640" fill="#000" fill-opacity="0.14"></rect>
<rect x="967.0" y="0" width="22" height="640" fill="#403e3c"></rect>
<rect x="986.0" y="0" width="3" height="640" fill="#000" fill-opacity="0.14"></rect>
<rect x="998.0" y="0" width="22" height="640" fill="#32302e"></rect>
<rect x="1017.0" y="0" width="3" height="640" fill="#000" fill-opacity="0.14"></rect>
<rect x="1029.0" y="0" width="22" height="640" fill="#3d3b39"></rect>
<rect x="1048.0" y="0" width="3" height="640" fill="#000" fill-opacity="0.14"></rect>
<rect x="1060.0" y="0" width="22" height="640" fill="#333230"></rect>
<rect x="1079.0" y="0" width="3" height="640" fill="#000" fill-opacity="0.14"></rect>
<rect x="1091.0" y="0" width="22" height="640" fill="#33312f"></rect>
<rect x="1110.0" y="0" width="3" height="640" fill="#000" fill-opacity="0.14"></rect>
<rect x="1122.0" y="0" width="22" height="640" fill="#32302e"></rect>
<rect x="1141.0" y="0" width="3" height="640" fill="#000" fill-opacity="0.14"></rect>
<rect x="1153.0" y="0" width="22" height="640" fill="#343230"></rect>
<rect x="1172.0" y="0" width="3" height="640" fill="#000" fill-opacity="0.14"></rect>
<rect x="1184.0" y="0" width="22" height="640" fill="#3e3d3b"></rect>
<rect x="1203.0" y="0" width="3" height="640" fill="#000" fill-opacity="0.14"></rect>
<rect x="1215.0" y="0" width="22" height="640" fill="#403e3c"></rect>
<rect x="1234.0" y="0" width="3" height="640" fill="#000" fill-opacity="0.14"></rect>
<rect x="1246.0" y="0" width="22" height="640" fill="#3f3d3b"></rect>
<rect x="1265.0" y="0" width="3" height="640" fill="#000" fill-opacity="0.14"></rect>
<rect x="1277.0" y="0" width="22" height="640" fill="#373533"></rect>
<rect x="1296.0" y="0" width="3" height="640" fill="#000" fill-opacity="0.14"></rect>
<rect x="1308.0" y="0" width="22" height="640" fill="#32302e"></rect>
<rect x="1327.0" y="0" width="3" height="640" fill="#000" fill-opacity="0.14"></rect>
<rect x="1339.0" y="0" width="22" height="640" fill="#343230"></rect>
<rect x="1358.0" y="0" width="3" height="640" fill="#000" fill-opacity="0.14"></rect>
<rect x="1370.0" y="0" width="22" height="640" fill="#383634"></rect>
<rect x="1389.0" y="0" width="3" height="640" fill="#000" fill-opacity="0.14"></rect>
<rect x="1401.0" y="0" width="22" height="640" fill="#33312f"></rect>
<rect x="1420.0" y="0" width="3" height="640" fill="#000" fill-opacity="0.14"></rect>
<rect x="1432.0" y="0" width="22" height="640" fill="#403e3c"></rect>
<rect x="1451.0" y="0" width="3" height="640" fill="#000" fill-opacity="0.14"></rect>
<rect x="1463.0" y="0" width="22" height="640" fill="#31302e"></rect>
<rect x="1482.0" y="0" width="3" height="640" fill="#000" fill-opacity="0.14"></rect>
<rect x="1494.0" y="0" width="22" height="640" fill="#32302e"></rect>
<rect x="1513.0" y="0" width="3" height="640" fill="#000" fill-opacity="0.14"></rect>
<rect x="1525.0" y="0" width="22" height="640" fill="#32302e"></rect>
<rect x="1544.0" y="0" width="3" height="640" fill="#000" fill-opacity="0.14"></rect>
<rect x="1556.0" y="0" width="22" height="640" fill="#32302e"></rect>
<rect x="1575.0" y="0" width="3" height="640" fill="#000" fill-opacity="0.14"></rect>
<rect x="0" y="624" width="1600" height="16" fill="#373533"></rect>
<rect x="0" y="640" width="1600" height="360" fill="#ded4c4"></rect>
<polygon points="-2240.0,1000.0 -2107.8,1000.0 -454.2,640.0 -512.0,640.0" fill="#d0c7b8"></polygon>
<line x1="-2194.6" y1="1000" x2="-492.1" y2="640" stroke="#9c958a" stroke-opacity="0.22" stroke-width="1"></line>
<line x1="-2183.9" y1="1000" x2="-487.5" y2="640" stroke="#9c958a" stroke-opacity="0.22" stroke-width="1"></line>
<line x1="-550.9" y1="648.1" x2="-491.4" y2="648.1" stroke="#817b72" stroke-opacity="0.5" stroke-width="1.2"></line>
<line x1="-2107.8" y1="1000" x2="-454.2" y2="640" stroke="#817b72" stroke-opacity="0.55" stroke-width="1.2"></line>
<polygon points="-2107.8,1000.0 -1975.7,1000.0 -396.3,640.0 -454.2,640.0" fill="#d9cfc0"></polygon>
<line x1="-2067.9" y1="1000" x2="-436.7" y2="640" stroke="#a39c90" stroke-opacity="0.22" stroke-width="1"></line>
<line x1="-2036.7" y1="1000" x2="-423.1" y2="640" stroke="#a39c90" stroke-opacity="0.22" stroke-width="1"></line>
<line x1="-692.6" y1="691.9" x2="-624.1" y2="691.9" stroke="#817b72" stroke-opacity="0.5" stroke-width="1.2"></line>
<line x1="-1975.7" y1="1000" x2="-396.3" y2="640" stroke="#817b72" stroke-opacity="0.55" stroke-width="1.2"></line>
<polygon points="-1975.7,1000.0 -1843.5,1000.0 -338.5,640.0 -396.3,640.0" fill="#d5cbbc"></polygon>
<line x1="-1894.5" y1="1000" x2="-360.8" y2="640" stroke="#a0998d" stroke-opacity="0.22" stroke-width="1"></line>
<line x1="-1921.0" y1="1000" x2="-372.5" y2="640" stroke="#a0998d" stroke-opacity="0.22" stroke-width="1"></line>
<line x1="-890.3" y1="752.6" x2="-809.2" y2="752.6" stroke="#817b72" stroke-opacity="0.5" stroke-width="1.2"></line>
<line x1="-1843.5" y1="1000" x2="-338.5" y2="640" stroke="#817b72" stroke-opacity="0.55" stroke-width="1.2"></line>
<polygon points="-1843.5,1000.0 -1711.3,1000.0 -280.7,640.0 -338.5,640.0" fill="#ded4c4"></polygon>
<line x1="-1810.3" y1="1000" x2="-324.0" y2="640" stroke="#a79f93" stroke-opacity="0.22" stroke-width="1"></line>
<line x1="-1745.2" y1="1000" x2="-295.5" y2="640" stroke="#a79f93" stroke-opacity="0.22" stroke-width="1"></line>
<line x1="-692.5" y1="724.7" x2="-617.2" y2="724.7" stroke="#817b72" stroke-opacity="0.5" stroke-width="1.2"></line>
<line x1="-356.6" y1="644.3" x2="-297.9" y2="644.3" stroke="#817b72" stroke-opacity="0.5" stroke-width="1.2"></line>
<line x1="-1711.3" y1="1000" x2="-280.7" y2="640" stroke="#817b72" stroke-opacity="0.55" stroke-width="1.2"></line>
<polygon points="-1711.3,1000.0 -1579.1,1000.0 -222.9,640.0 -280.7,640.0" fill="#ded4c4"></polygon>
<line x1="-1613.7" y1="1000" x2="-238.0" y2="640" stroke="#a79f93" stroke-opacity="0.22" stroke-width="1"></line>
<line x1="-1661.2" y1="1000" x2="-258.8" y2="640" stroke="#a79f93" stroke-opacity="0.22" stroke-width="1"></line>
<line x1="-581.3" y1="715.7" x2="-507.9" y2="715.7" stroke="#817b72" stroke-opacity="0.5" stroke-width="1.2"></line>
<line x1="-1579.1" y1="1000" x2="-222.9" y2="640" stroke="#817b72" stroke-opacity="0.55" stroke-width="1.2"></line>
<polygon points="-1579.1,1000.0 -1447.0,1000.0 -165.0,640.0 -222.9,640.0" fill="#d8cebf"></polygon>
<line x1="-1522.9" y1="1000" x2="-198.3" y2="640" stroke="#a29b8f" stroke-opacity="0.22" stroke-width="1"></line>
<line x1="-1531.2" y1="1000" x2="-201.9" y2="640" stroke="#a29b8f" stroke-opacity="0.22" stroke-width="1"></line>
<line x1="-1447.0" y1="1000" x2="-165.0" y2="640" stroke="#817b72" stroke-opacity="0.55" stroke-width="1.2"></line>
<polygon points="-1447.0,1000.0 -1314.8,1000.0 -107.2,640.0 -165.0,640.0" fill="#d3c9ba"></polygon>
<line x1="-1384.7" y1="1000" x2="-137.8" y2="640" stroke="#9e978c" stroke-opacity="0.22" stroke-width="1"></line>
<line x1="-1412.0" y1="1000" x2="-149.8" y2="640" stroke="#9e978c" stroke-opacity="0.22" stroke-width="1"></line>
<line x1="-177.7" y1="643.6" x2="-119.2" y2="643.6" stroke="#817b72" stroke-opacity="0.5" stroke-width="1.2"></line>
<line x1="-1314.8" y1="1000" x2="-107.2" y2="640" stroke="#817b72" stroke-opacity="0.55" stroke-width="1.2"></line>
<polygon points="-1314.8,1000.0 -1182.6,1000.0 -49.4,640.0 -107.2,640.0" fill="#dfd5c6"></polygon>
<line x1="-1264.2" y1="1000" x2="-85.1" y2="640" stroke="#a7a094" stroke-opacity="0.22" stroke-width="1"></line>
<line x1="-1252.7" y1="1000" x2="-80.0" y2="640" stroke="#a7a094" stroke-opacity="0.22" stroke-width="1"></line>
<line x1="-264.6" y1="686.9" x2="-197.1" y2="686.9" stroke="#817b72" stroke-opacity="0.5" stroke-width="1.2"></line>
<line x1="-1182.6" y1="1000" x2="-49.4" y2="640" stroke="#817b72" stroke-opacity="0.55" stroke-width="1.2"></line>
<polygon points="-1182.6,1000.0 -1050.4,1000.0 8.4,640.0 -49.4,640.0" fill="#d9cfbf"></polygon>
<line x1="-1116.8" y1="1000" x2="-20.6" y2="640" stroke="#a29b8f" stroke-opacity="0.22" stroke-width="1"></line>
<line x1="-1127.9" y1="1000" x2="-25.4" y2="640" stroke="#a29b8f" stroke-opacity="0.22" stroke-width="1"></line>
<line x1="-298.0" y1="719.0" x2="-223.9" y2="719.0" stroke="#817b72" stroke-opacity="0.5" stroke-width="1.2"></line>
<line x1="-1050.4" y1="1000" x2="8.4" y2="640" stroke="#817b72" stroke-opacity="0.55" stroke-width="1.2"></line>
<polygon points="-1050.4,1000.0 -918.3,1000.0 66.3,640.0 8.4,640.0" fill="#d2c8b9"></polygon>
<line x1="-974.7" y1="1000" x2="41.5" y2="640" stroke="#9d968b" stroke-opacity="0.22" stroke-width="1"></line>
<line x1="-990.9" y1="1000" x2="34.5" y2="640" stroke="#9d968b" stroke-opacity="0.22" stroke-width="1"></line>
<line x1="-77.1" y1="669.1" x2="-13.3" y2="669.1" stroke="#817b72" stroke-opacity="0.5" stroke-width="1.2"></line>
<line x1="-918.3" y1="1000" x2="66.3" y2="640" stroke="#817b72" stroke-opacity="0.55" stroke-width="1.2"></line>
<polygon points="-918.3,1000.0 -786.1,1000.0 124.1,640.0 66.3,640.0" fill="#ded4c4"></polygon>
<line x1="-843.5" y1="1000" x2="99.0" y2="640" stroke="#a79f93" stroke-opacity="0.22" stroke-width="1"></line>
<line x1="-841.8" y1="1000" x2="99.7" y2="640" stroke="#a79f93" stroke-opacity="0.22" stroke-width="1"></line>
<line x1="-21.8" y1="672.2" x2="42.7" y2="672.2" stroke="#817b72" stroke-opacity="0.5" stroke-width="1.2"></line>
<line x1="-786.1" y1="1000" x2="124.1" y2="640" stroke="#817b72" stroke-opacity="0.55" stroke-width="1.2"></line>
<polygon points="-786.1,1000.0 -653.9,1000.0 181.9,640.0 124.1,640.0" fill="#dfd5c5"></polygon>
<line x1="-753.7" y1="1000" x2="138.2" y2="640" stroke="#a7a094" stroke-opacity="0.22" stroke-width="1"></line>
<line x1="-711.6" y1="1000" x2="156.7" y2="640" stroke="#a7a094" stroke-opacity="0.22" stroke-width="1"></line>
<line x1="75.7" y1="659.1" x2="137.5" y2="659.1" stroke="#817b72" stroke-opacity="0.5" stroke-width="1.2"></line>
<line x1="-653.9" y1="1000" x2="181.9" y2="640" stroke="#817b72" stroke-opacity="0.55" stroke-width="1.2"></line>
<polygon points="-653.9,1000.0 -521.7,1000.0 239.7,640.0 181.9,640.0" fill="#dfd5c5"></polygon>
<line x1="-573.7" y1="1000" x2="217.0" y2="640" stroke="#a7a094" stroke-opacity="0.22" stroke-width="1"></line>
<line x1="-571.3" y1="1000" x2="218.1" y2="640" stroke="#a7a094" stroke-opacity="0.22" stroke-width="1"></line>
<line x1="62.1" y1="691.6" x2="130.6" y2="691.6" stroke="#817b72" stroke-opacity="0.5" stroke-width="1.2"></line>
<line x1="-521.7" y1="1000" x2="239.7" y2="640" stroke="#817b72" stroke-opacity="0.55" stroke-width="1.2"></line>
<polygon points="-521.7,1000.0 -389.6,1000.0 297.6,640.0 239.7,640.0" fill="#cfc6b7"></polygon>
<line x1="-454.8" y1="1000" x2="269.0" y2="640" stroke="#9b9489" stroke-opacity="0.22" stroke-width="1"></line>
<line x1="-461.8" y1="1000" x2="266.0" y2="640" stroke="#9b9489" stroke-opacity="0.22" stroke-width="1"></line>
<line x1="136.8" y1="688.7" x2="204.7" y2="688.7" stroke="#817b72" stroke-opacity="0.5" stroke-width="1.2"></line>
<line x1="-389.6" y1="1000" x2="297.6" y2="640" stroke="#817b72" stroke-opacity="0.55" stroke-width="1.2"></line>
<polygon points="-389.6,1000.0 -257.4,1000.0 355.4,640.0 297.6,640.0" fill="#dbd1c1"></polygon>
<line x1="-317.6" y1="1000" x2="329.1" y2="640" stroke="#a49d91" stroke-opacity="0.22" stroke-width="1"></line>
<line x1="-344.5" y1="1000" x2="317.3" y2="640" stroke="#a49d91" stroke-opacity="0.22" stroke-width="1"></line>
<line x1="-257.4" y1="1000" x2="355.4" y2="640" stroke="#817b72" stroke-opacity="0.55" stroke-width="1.2"></line>
<polygon points="-257.4,1000.0 -125.2,1000.0 413.2,640.0 355.4,640.0" fill="#dfd5c6"></polygon>
<line x1="-172.4" y1="1000" x2="392.6" y2="640" stroke="#a7a094" stroke-opacity="0.22" stroke-width="1"></line>
<line x1="-228.9" y1="1000" x2="367.9" y2="640" stroke="#a7a094" stroke-opacity="0.22" stroke-width="1"></line>
<line x1="205.0" y1="728.3" x2="281.1" y2="728.3" stroke="#817b72" stroke-opacity="0.5" stroke-width="1.2"></line>
<line x1="-125.2" y1="1000" x2="413.2" y2="640" stroke="#817b72" stroke-opacity="0.55" stroke-width="1.2"></line>
<polygon points="-125.2,1000.0 7.0,1000.0 471.0,640.0 413.2,640.0" fill="#dbd1c1"></polygon>
<line x1="-57.7" y1="1000" x2="442.8" y2="640" stroke="#a49d91" stroke-opacity="0.22" stroke-width="1"></line>
<line x1="-49.0" y1="1000" x2="446.6" y2="640" stroke="#a49d91" stroke-opacity="0.22" stroke-width="1"></line>
<line x1="391.4" y1="654.6" x2="452.2" y2="654.6" stroke="#817b72" stroke-opacity="0.5" stroke-width="1.2"></line>
<line x1="7.0" y1="1000" x2="471.0" y2="640" stroke="#817b72" stroke-opacity="0.55" stroke-width="1.2"></line>
<polygon points="7.0,1000.0 139.1,1000.0 528.9,640.0 471.0,640.0" fill="#e0d6c7"></polygon>
<line x1="97.7" y1="1000" x2="510.8" y2="640" stroke="#a8a195" stroke-opacity="0.22" stroke-width="1"></line>
<line x1="109.6" y1="1000" x2="515.9" y2="640" stroke="#a8a195" stroke-opacity="0.22" stroke-width="1"></line>
<line x1="353.7" y1="731.1" x2="430.3" y2="731.1" stroke="#817b72" stroke-opacity="0.5" stroke-width="1.2"></line>
<line x1="139.1" y1="1000" x2="528.9" y2="640" stroke="#817b72" stroke-opacity="0.55" stroke-width="1.2"></line>
<polygon points="139.1,1000.0 271.3,1000.0 586.7,640.0 528.9,640.0" fill="#e0d6c7"></polygon>
<line x1="240.5" y1="1000" x2="573.2" y2="640" stroke="#a8a195" stroke-opacity="0.22" stroke-width="1"></line>
<line x1="218.6" y1="1000" x2="563.6" y2="640" stroke="#a8a195" stroke-opacity="0.22" stroke-width="1"></line>
<line x1="487.0" y1="678.7" x2="552.8" y2="678.7" stroke="#817b72" stroke-opacity="0.5" stroke-width="1.2"></line>
<line x1="271.3" y1="1000" x2="586.7" y2="640" stroke="#817b72" stroke-opacity="0.55" stroke-width="1.2"></line>
<polygon points="271.3,1000.0 403.5,1000.0 644.5,640.0 586.7,640.0" fill="#dfd5c6"></polygon>
<line x1="312.8" y1="1000" x2="604.9" y2="640" stroke="#a7a094" stroke-opacity="0.22" stroke-width="1"></line>
<line x1="306.2" y1="1000" x2="602.0" y2="640" stroke="#a7a094" stroke-opacity="0.22" stroke-width="1"></line>
<line x1="403.5" y1="1000" x2="644.5" y2="640" stroke="#817b72" stroke-opacity="0.55" stroke-width="1.2"></line>
<polygon points="403.5,1000.0 535.7,1000.0 702.3,640.0 644.5,640.0" fill="#dad0c1"></polygon>
<line x1="436.5" y1="1000" x2="659.0" y2="640" stroke="#a49c91" stroke-opacity="0.22" stroke-width="1"></line>
<line x1="453.5" y1="1000" x2="666.4" y2="640" stroke="#a49c91" stroke-opacity="0.22" stroke-width="1"></line>
<line x1="626.0" y1="667.6" x2="689.6" y2="667.6" stroke="#817b72" stroke-opacity="0.5" stroke-width="1.2"></line>
<line x1="535.7" y1="1000" x2="702.3" y2="640" stroke="#817b72" stroke-opacity="0.55" stroke-width="1.2"></line>
<polygon points="535.7,1000.0 667.8,1000.0 760.2,640.0 702.3,640.0" fill="#d8cebf"></polygon>
<line x1="636.9" y1="1000" x2="746.7" y2="640" stroke="#a29b8f" stroke-opacity="0.22" stroke-width="1"></line>
<line x1="589.1" y1="1000" x2="725.7" y2="640" stroke="#a29b8f" stroke-opacity="0.22" stroke-width="1"></line>
<line x1="698.0" y1="649.4" x2="757.8" y2="649.4" stroke="#817b72" stroke-opacity="0.5" stroke-width="1.2"></line>
<line x1="667.8" y1="1000" x2="760.2" y2="640" stroke="#817b72" stroke-opacity="0.55" stroke-width="1.2"></line>
<polygon points="667.8,1000.0 800.0,1000.0 818.0,640.0 760.2,640.0" fill="#dbd1c1"></polygon>
<line x1="728.0" y1="1000" x2="786.5" y2="640" stroke="#a49d91" stroke-opacity="0.22" stroke-width="1"></line>
<line x1="706.3" y1="1000" x2="777.0" y2="640" stroke="#a49d91" stroke-opacity="0.22" stroke-width="1"></line>
<line x1="738.6" y1="724.2" x2="813.8" y2="724.2" stroke="#817b72" stroke-opacity="0.5" stroke-width="1.2"></line>
<line x1="800.0" y1="1000" x2="818.0" y2="640" stroke="#817b72" stroke-opacity="0.55" stroke-width="1.2"></line>
<polygon points="800.0,1000.0 932.2,1000.0 875.8,640.0 818.0,640.0" fill="#dfd5c6"></polygon>
<line x1="852.3" y1="1000" x2="840.9" y2="640" stroke="#a7a094" stroke-opacity="0.22" stroke-width="1"></line>
<line x1="840.7" y1="1000" x2="835.8" y2="640" stroke="#a7a094" stroke-opacity="0.22" stroke-width="1"></line>
<line x1="816.2" y1="676.2" x2="881.5" y2="676.2" stroke="#817b72" stroke-opacity="0.5" stroke-width="1.2"></line>
<line x1="932.2" y1="1000" x2="875.8" y2="640" stroke="#817b72" stroke-opacity="0.55" stroke-width="1.2"></line>
<polygon points="932.2,1000.0 1064.3,1000.0 933.7,640.0 875.8,640.0" fill="#e0d6c7"></polygon>
<line x1="1036.2" y1="1000" x2="921.3" y2="640" stroke="#a8a195" stroke-opacity="0.22" stroke-width="1"></line>
<line x1="985.5" y1="1000" x2="899.2" y2="640" stroke="#a8a195" stroke-opacity="0.22" stroke-width="1"></line>
<line x1="888.0" y1="718.0" x2="962.0" y2="718.0" stroke="#817b72" stroke-opacity="0.5" stroke-width="1.2"></line>
<line x1="1064.3" y1="1000" x2="933.7" y2="640" stroke="#817b72" stroke-opacity="0.55" stroke-width="1.2"></line>
<polygon points="1064.3,1000.0 1196.5,1000.0 991.5,640.0 933.7,640.0" fill="#e0d6c7"></polygon>
<line x1="1137.6" y1="1000" x2="965.7" y2="640" stroke="#a8a195" stroke-opacity="0.22" stroke-width="1"></line>
<line x1="1123.7" y1="1000" x2="959.6" y2="640" stroke="#a8a195" stroke-opacity="0.22" stroke-width="1"></line>
<line x1="934.6" y1="642.7" x2="993.0" y2="642.7" stroke="#817b72" stroke-opacity="0.5" stroke-width="1.2"></line>
<line x1="1196.5" y1="1000" x2="991.5" y2="640" stroke="#817b72" stroke-opacity="0.55" stroke-width="1.2"></line>
<polygon points="1196.5,1000.0 1328.7,1000.0 1049.3,640.0 991.5,640.0" fill="#d2c8b9"></polygon>
<line x1="1252.7" y1="1000" x2="1016.1" y2="640" stroke="#9d968b" stroke-opacity="0.22" stroke-width="1"></line>
<line x1="1250.2" y1="1000" x2="1014.9" y2="640" stroke="#9d968b" stroke-opacity="0.22" stroke-width="1"></line>
<line x1="1008.3" y1="669.5" x2="1072.2" y2="669.5" stroke="#817b72" stroke-opacity="0.5" stroke-width="1.2"></line>
<line x1="1328.7" y1="1000" x2="1049.3" y2="640" stroke="#817b72" stroke-opacity="0.55" stroke-width="1.2"></line>
<polygon points="1328.7,1000.0 1460.9,1000.0 1107.1,640.0 1049.3,640.0" fill="#dcd2c3"></polygon>
<line x1="1379.4" y1="1000" x2="1071.5" y2="640" stroke="#a59e92" stroke-opacity="0.22" stroke-width="1"></line>
<line x1="1407.4" y1="1000" x2="1083.7" y2="640" stroke="#a59e92" stroke-opacity="0.22" stroke-width="1"></line>
<line x1="1116.4" y1="726.5" x2="1192.1" y2="726.5" stroke="#817b72" stroke-opacity="0.5" stroke-width="1.2"></line>
<line x1="1460.9" y1="1000" x2="1107.1" y2="640" stroke="#817b72" stroke-opacity="0.55" stroke-width="1.2"></line>
<polygon points="1460.9,1000.0 1593.0,1000.0 1165.0,640.0 1107.1,640.0" fill="#e0d7c8"></polygon>
<line x1="1542.3" y1="1000" x2="1142.8" y2="640" stroke="#a8a196" stroke-opacity="0.22" stroke-width="1"></line>
<line x1="1532.3" y1="1000" x2="1138.4" y2="640" stroke="#a8a196" stroke-opacity="0.22" stroke-width="1"></line>
<line x1="1222.2" y1="757.1" x2="1304.2" y2="757.1" stroke="#817b72" stroke-opacity="0.5" stroke-width="1.2"></line>
<line x1="1593.0" y1="1000" x2="1165.0" y2="640" stroke="#817b72" stroke-opacity="0.55" stroke-width="1.2"></line>
<polygon points="1593.0,1000.0 1725.2,1000.0 1222.8,640.0 1165.0,640.0" fill="#e0d7c8"></polygon>
<line x1="1657.2" y1="1000" x2="1193.0" y2="640" stroke="#a8a196" stroke-opacity="0.22" stroke-width="1"></line>
<line x1="1696.5" y1="1000" x2="1210.2" y2="640" stroke="#a8a196" stroke-opacity="0.22" stroke-width="1"></line>
<line x1="1289.7" y1="744.9" x2="1369.2" y2="744.9" stroke="#817b72" stroke-opacity="0.5" stroke-width="1.2"></line>
<line x1="1725.2" y1="1000" x2="1222.8" y2="640" stroke="#817b72" stroke-opacity="0.55" stroke-width="1.2"></line>
<polygon points="1725.2,1000.0 1857.4,1000.0 1280.6,640.0 1222.8,640.0" fill="#dfd5c6"></polygon>
<line x1="1780.6" y1="1000" x2="1247.0" y2="640" stroke="#a7a094" stroke-opacity="0.22" stroke-width="1"></line>
<line x1="1803.6" y1="1000" x2="1257.1" y2="640" stroke="#a7a094" stroke-opacity="0.22" stroke-width="1"></line>
<line x1="1332.5" y1="718.6" x2="1406.6" y2="718.6" stroke="#817b72" stroke-opacity="0.5" stroke-width="1.2"></line>
<line x1="1857.4" y1="1000" x2="1280.6" y2="640" stroke="#817b72" stroke-opacity="0.55" stroke-width="1.2"></line>
<polygon points="1857.4,1000.0 1989.6,1000.0 1338.4,640.0 1280.6,640.0" fill="#d4cbbb"></polygon>
<line x1="1896.9" y1="1000" x2="1297.9" y2="640" stroke="#9f988d" stroke-opacity="0.22" stroke-width="1"></line>
<line x1="1916.4" y1="1000" x2="1306.4" y2="640" stroke="#9f988d" stroke-opacity="0.22" stroke-width="1"></line>
<line x1="1361.9" y1="690.7" x2="1430.2" y2="690.7" stroke="#817b72" stroke-opacity="0.5" stroke-width="1.2"></line>
<line x1="1989.6" y1="1000" x2="1338.4" y2="640" stroke="#817b72" stroke-opacity="0.55" stroke-width="1.2"></line>
<polygon points="1989.6,1000.0 2121.7,1000.0 1396.3,640.0 1338.4,640.0" fill="#d3c9ba"></polygon>
<line x1="2066.0" y1="1000" x2="1371.9" y2="640" stroke="#9e978c" stroke-opacity="0.22" stroke-width="1"></line>
<line x1="2056.7" y1="1000" x2="1367.8" y2="640" stroke="#9e978c" stroke-opacity="0.22" stroke-width="1"></line>
<line x1="1426.2" y1="688.5" x2="1494.0" y2="688.5" stroke="#817b72" stroke-opacity="0.5" stroke-width="1.2"></line>
<line x1="2121.7" y1="1000" x2="1396.3" y2="640" stroke="#817b72" stroke-opacity="0.55" stroke-width="1.2"></line>
<polygon points="2121.7,1000.0 2253.9,1000.0 1454.1,640.0 1396.3,640.0" fill="#dfd6c7"></polygon>
<line x1="2149.9" y1="1000" x2="1408.6" y2="640" stroke="#a8a095" stroke-opacity="0.22" stroke-width="1"></line>
<line x1="2175.7" y1="1000" x2="1419.9" y2="640" stroke="#a8a095" stroke-opacity="0.22" stroke-width="1"></line>
<line x1="1579.7" y1="731.0" x2="1656.3" y2="731.0" stroke="#817b72" stroke-opacity="0.5" stroke-width="1.2"></line>
<line x1="2253.9" y1="1000" x2="1454.1" y2="640" stroke="#817b72" stroke-opacity="0.55" stroke-width="1.2"></line>
<polygon points="2253.9,1000.0 2386.1,1000.0 1511.9,640.0 1454.1,640.0" fill="#dbd1c1"></polygon>
<line x1="2357.4" y1="1000" x2="1499.4" y2="640" stroke="#a49d91" stroke-opacity="0.22" stroke-width="1"></line>
<line x1="2341.8" y1="1000" x2="1492.6" y2="640" stroke="#a49d91" stroke-opacity="0.22" stroke-width="1"></line>
<line x1="1579.6" y1="696.5" x2="1649.1" y2="696.5" stroke="#817b72" stroke-opacity="0.5" stroke-width="1.2"></line>
<line x1="2386.1" y1="1000" x2="1511.9" y2="640" stroke="#817b72" stroke-opacity="0.55" stroke-width="1.2"></line>
<polygon points="2386.1,1000.0 2518.3,1000.0 1569.7,640.0 1511.9,640.0" fill="#dfd6c7"></polygon>
<line x1="2450.3" y1="1000" x2="1540.0" y2="640" stroke="#a8a095" stroke-opacity="0.22" stroke-width="1"></line>
<line x1="2430.6" y1="1000" x2="1531.4" y2="640" stroke="#a8a095" stroke-opacity="0.22" stroke-width="1"></line>
<line x1="1704.9" y1="719.5" x2="1779.2" y2="719.5" stroke="#817b72" stroke-opacity="0.5" stroke-width="1.2"></line>
<line x1="2518.3" y1="1000" x2="1569.7" y2="640" stroke="#817b72" stroke-opacity="0.55" stroke-width="1.2"></line>
<polygon points="2518.3,1000.0 2650.4,1000.0 1627.6,640.0 1569.7,640.0" fill="#d2c8b9"></polygon>
<line x1="2584.4" y1="1000" x2="1598.7" y2="640" stroke="#9d968b" stroke-opacity="0.22" stroke-width="1"></line>
<line x1="2601.3" y1="1000" x2="1606.0" y2="640" stroke="#9d968b" stroke-opacity="0.22" stroke-width="1"></line>
<line x1="1760.8" y1="712.5" x2="1833.6" y2="712.5" stroke="#817b72" stroke-opacity="0.5" stroke-width="1.2"></line>
<line x1="2650.4" y1="1000" x2="1627.6" y2="640" stroke="#817b72" stroke-opacity="0.55" stroke-width="1.2"></line>
<polygon points="2650.4,1000.0 2782.6,1000.0 1685.4,640.0 1627.6,640.0" fill="#dbd1c1"></polygon>
<line x1="2725.1" y1="1000" x2="1660.2" y2="640" stroke="#a49d91" stroke-opacity="0.22" stroke-width="1"></line>
<line x1="2698.6" y1="1000" x2="1648.6" y2="640" stroke="#a49d91" stroke-opacity="0.22" stroke-width="1"></line>
<line x1="1884.0" y1="730.2" x2="1960.5" y2="730.2" stroke="#817b72" stroke-opacity="0.5" stroke-width="1.2"></line>
<line x1="2782.6" y1="1000" x2="1685.4" y2="640" stroke="#817b72" stroke-opacity="0.55" stroke-width="1.2"></line>
<polygon points="2782.6,1000.0 2914.8,1000.0 1743.2,640.0 1685.4,640.0" fill="#d3cabb"></polygon>
<line x1="2855.4" y1="1000" x2="1717.2" y2="640" stroke="#9e978c" stroke-opacity="0.22" stroke-width="1"></line>
<line x1="2868.1" y1="1000" x2="1722.8" y2="640" stroke="#9e978c" stroke-opacity="0.22" stroke-width="1"></line>
<line x1="1786.7" y1="673.2" x2="1851.4" y2="673.2" stroke="#817b72" stroke-opacity="0.5" stroke-width="1.2"></line>
<line x1="2914.8" y1="1000" x2="1743.2" y2="640" stroke="#817b72" stroke-opacity="0.55" stroke-width="1.2"></line>
<polygon points="2914.8,1000.0 3047.0,1000.0 1801.0,640.0 1743.2,640.0" fill="#d8cfbf"></polygon>
<line x1="2942.3" y1="1000" x2="1755.3" y2="640" stroke="#a29b8f" stroke-opacity="0.22" stroke-width="1"></line>
<line x1="2985.5" y1="1000" x2="1774.2" y2="640" stroke="#a29b8f" stroke-opacity="0.22" stroke-width="1"></line>
<line x1="1932.0" y1="698.0" x2="2001.9" y2="698.0" stroke="#817b72" stroke-opacity="0.5" stroke-width="1.2"></line>
<line x1="3047.0" y1="1000" x2="1801.0" y2="640" stroke="#817b72" stroke-opacity="0.55" stroke-width="1.2"></line>
<polygon points="3047.0,1000.0 3179.1,1000.0 1858.9,640.0 1801.0,640.0" fill="#d3c9ba"></polygon>
<line x1="3083.2" y1="1000" x2="1816.9" y2="640" stroke="#9e978c" stroke-opacity="0.22" stroke-width="1"></line>
<line x1="3112.7" y1="1000" x2="1829.8" y2="640" stroke="#9e978c" stroke-opacity="0.22" stroke-width="1"></line>
<line x1="2022.6" y1="704.0" x2="2093.7" y2="704.0" stroke="#817b72" stroke-opacity="0.5" stroke-width="1.2"></line>
<line x1="3179.1" y1="1000" x2="1858.9" y2="640" stroke="#817b72" stroke-opacity="0.55" stroke-width="1.2"></line>
<polygon points="3179.1,1000.0 3311.3,1000.0 1916.7,640.0 1858.9,640.0" fill="#e0d7c8"></polygon>
<line x1="3263.1" y1="1000" x2="1895.6" y2="640" stroke="#a8a196" stroke-opacity="0.22" stroke-width="1"></line>
<line x1="3270.7" y1="1000" x2="1898.9" y2="640" stroke="#a8a196" stroke-opacity="0.22" stroke-width="1"></line>
<line x1="3311.3" y1="1000" x2="1916.7" y2="640" stroke="#817b72" stroke-opacity="0.55" stroke-width="1.2"></line>
<polygon points="3311.3,1000.0 3443.5,1000.0 1974.5,640.0 1916.7,640.0" fill="#dfd5c6"></polygon>
<line x1="3373.4" y1="1000" x2="1943.9" y2="640" stroke="#a7a094" stroke-opacity="0.22" stroke-width="1"></line>
<line x1="3404.4" y1="1000" x2="1957.4" y2="640" stroke="#a7a094" stroke-opacity="0.22" stroke-width="1"></line>
<line x1="1944.1" y1="647.1" x2="2003.3" y2="647.1" stroke="#817b72" stroke-opacity="0.5" stroke-width="1.2"></line>
<line x1="3443.5" y1="1000" x2="1974.5" y2="640" stroke="#817b72" stroke-opacity="0.55" stroke-width="1.2"></line>
<polygon points="3443.5,1000.0 3575.7,1000.0 2032.3,640.0 1974.5,640.0" fill="#dfd6c7"></polygon>
<line x1="3486.3" y1="1000" x2="1993.3" y2="640" stroke="#a8a095" stroke-opacity="0.22" stroke-width="1"></line>
<line x1="3547.8" y1="1000" x2="2020.2" y2="640" stroke="#a8a095" stroke-opacity="0.22" stroke-width="1"></line>
<line x1="2379.2" y1="739.2" x2="2457.5" y2="739.2" stroke="#817b72" stroke-opacity="0.5" stroke-width="1.2"></line>
<line x1="3575.7" y1="1000" x2="2032.3" y2="640" stroke="#817b72" stroke-opacity="0.55" stroke-width="1.2"></line>
<polygon points="3575.7,1000.0 3707.8,1000.0 2090.2,640.0 2032.3,640.0" fill="#e0d7c8"></polygon>
<line x1="3659.7" y1="1000" x2="2069.1" y2="640" stroke="#a8a196" stroke-opacity="0.22" stroke-width="1"></line>
<line x1="3615.5" y1="1000" x2="2049.8" y2="640" stroke="#a8a196" stroke-opacity="0.22" stroke-width="1"></line>
<line x1="2340.0" y1="711.8" x2="2412.6" y2="711.8" stroke="#817b72" stroke-opacity="0.5" stroke-width="1.2"></line>
<line x1="3707.8" y1="1000" x2="2090.2" y2="640" stroke="#817b72" stroke-opacity="0.55" stroke-width="1.2"></line>
<polygon points="3707.8,1000.0 3840.0,1000.0 2148.0,640.0 2090.2,640.0" fill="#d2c9ba"></polygon>
<line x1="3794.1" y1="1000" x2="2127.9" y2="640" stroke="#9e978b" stroke-opacity="0.22" stroke-width="1"></line>
<line x1="3752.4" y1="1000" x2="2109.7" y2="640" stroke="#9e978b" stroke-opacity="0.22" stroke-width="1"></line>
<line x1="2370.3" y1="702.3" x2="2441.0" y2="702.3" stroke="#817b72" stroke-opacity="0.5" stroke-width="1.2"></line>
<line x1="3840.0" y1="1000" x2="2148.0" y2="640" stroke="#817b72" stroke-opacity="0.55" stroke-width="1.2"></line>
</svg>
